<svg version="1.2" xmlns="http://www.w3.org/2000/svg" viewBox="0 0 1200 1071" width="151" height="135"><style>.a{fill:#fff}</style><path class="a" d="m588.5 1.1c-3.3 0.6-15.4 2.6-27 4.5-92.7 15.4-173.4 39.1-248.7 73.2l-16.8 7.5v24.6 24.6l-32.5 17.5-32.4 17.5-0.1 24.6v24.6l-32.9 17.8c-31.3 17-33 18-32.6 20.4 0.3 1.4 1.9 11.1 3.6 21.6 11.9 73.5 34.8 144.5 67.8 210.4 70.6 140.7 191.7 259.6 345.6 339.2l17.3 9 12.9-6.4c76.2-38.3 152.4-93.1 212.4-153 112.3-111.8 182.3-248.6 207.4-404.9 1.5-9.3 2.5-17.4 2.2-18-0.2-0.7-15.1-9.2-33.1-18.7l-32.6-17.5v-24.5l-0.1-24.6-32.4-17.5-32.5-17.5v-24.1c0-18.1-0.3-24.4-1.2-25.2-2.4-1.9-35.2-16.4-56.2-24.7-64.9-25.7-139.4-45.6-216.1-57.5-23-3.6-33.5-4.3-42-2.9zm-19.5 419.6l-0.1 314.8-6.1-6.5c-34.4-36.8-70.3-88.7-98-141.7-7.1-13.6-8.2-15.2-9.8-14.3-1 0.5-13.9 8.2-28.7 17.1l-26.8 16.1-5.9-6.3c-8.3-9.1-26.7-32.2-37.6-47.4-41.3-57.3-75.1-127-98.8-203.5-5.2-16.8-17.2-60.4-17.2-62.6 0-1.8 50.2-52.6 51-51.7 0.4 0.4 1.5 4.4 2.5 8.8 3.1 14.8 14.3 57.8 19.4 74.5 22.3 73.4 48.8 131.7 84.4 185.7 5.5 8.4 10.5 15.3 11 15.3 1 0 20.7-10.9 20.7-11.5 0-0.2-3.2-9.7-7.1-21.2-29.6-87.5-48-177.9-57.4-280.8-0.8-9.4-1.7-18.9-2-21.2l-0.4-4.1 11.2-6.7c10.5-6.2 52.1-27.5 53.7-27.5 0.4 0 1.1 4.4 1.4 9.7 8.8 127.8 31.8 245.8 66.8 341.8 3.8 10.4 7.2 19.3 7.6 19.7 3.2 3.2 3.2 1.4 1.7-189.8-0.9-103.9-1.5-193.6-1.3-199.3l0.3-10.5 5.5-1.2c16.9-3.9 51-10 58.3-10.3 1.6-0.1 1.7 15.5 1.7 314.6zm81.5-312.7c39.9 3.6 76.8 12.1 115 26.5 59.7 22.4 104.5 52.2 125 82.9 9.8 14.7 12.9 24.7 12.7 41.1-0.2 23.1-7.1 40.9-23.2 59.6l-4.8 5.5 6.1 3.4c15.5 8.4 28.1 19.9 33 30.1 9.4 19.3 7.3 47.5-5.8 81.4-17.3 44.7-50.9 96.1-98.2 150.4-15.8 18.1-53.5 55.9-70.8 71-35.1 30.6-71 56.5-100.7 72.6l-8.8 4.7v-315.1-315.1h4.8c2.6 0 9.7 0.5 15.7 1z"/><path class="a" d="m696 271.5c0 85 0.1 89.5 1.8 88.6 42.2-22.4 89-47.6 93.2-50.1 19.3-11.8 32.6-24.6 39.6-38 2.5-4.8 2.9-6.6 2.9-14 0-11.6-2.2-15.9-14-27.5-10.2-10.1-23-18.3-41.5-26.6-25.1-11.2-62.9-21.9-77.7-21.9h-4.3z"/><path class="a" d="m795.5 374.1c-13.2 7.6-41 23.4-61.7 35.1l-37.8 21.2v90.4 90.3l2.8-1.9c7.6-5.5 27.6-23.5 42.7-38.7 51.6-51.5 91.5-105.6 106-143.5 9.6-24.9 8.4-42-3.9-54.2-4.6-4.6-16.4-11.3-21.6-12.2-1.9-0.3-8.7 3.2-26.5 13.5z"/><path class="a" d="m1007.3 931.5c-18 3.9-31.1 18.7-37.5 42.5-2 7.5-2.3 10.7-2.2 27 0.1 21.3 1.5 28.6 8.4 42.6 9.6 19.7 28.1 29.8 48.7 26.6 20-3.1 33.7-17.4 40.5-42.3 2-7.4 2.3-10.7 2.3-27.4 0-22.1-1-27.5-8.1-42.2-7.4-15.4-17.4-23.7-32.3-26.9-8-1.7-11.7-1.7-19.8 0.1zm20 25.3c1.8 1 4.6 3.7 6.4 6 10.7 14.1 11.9 53.3 2.2 72.3-5.9 11.7-20.1 15.2-30.1 7.5-8.5-6.4-12.8-20.6-12.8-42.1 0-25.5 6.3-40.8 18.5-45.4 4-1.4 11.9-0.6 15.8 1.7z"/><path class="a" d="m1110.4 931.5c-18.7 4.1-28.6 16.4-28.5 35.7 0 18.7 8.8 29.9 34.7 44.4 4.6 2.6 10.1 6.5 12.4 8.7 7.3 7.3 7.6 16.4 0.5 22.6-9.1 7.9-23.7 6-34.3-4.7l-4.5-4.4-7.3 7.3c-4.1 4.1-7.4 7.6-7.4 7.9 0 1.7 7.7 9.2 12.7 12.6 15.7 10.4 33.9 11.9 50.2 4.2 23.8-11.3 28.8-42.3 9.9-61.1-2.9-2.9-11.4-9.1-18.8-13.7-15.7-9.9-20.4-14.2-22-20.1-2.2-8 3-15.7 11.8-17.5 4.7-1 13.3 2.1 18.3 6.5l4.5 3.9 7.7-7.5c4.2-4.2 7.7-7.9 7.7-8.3 0-0.4-2.3-2.8-5-5.4-6.2-5.8-15.3-10.2-24-11.5-8.1-1.3-11-1.3-18.6 0.4z"/><path class="a" d="m0.4 934.7c0.3 1 7.5 29.7 16.1 63.8 8.6 34.1 16.1 63.7 16.6 65.7l1 3.8h12.2 12.2l10.5-44.6c6.8-29.1 10.7-44 11.2-42.8 0.4 1.1 4.8 19.4 9.8 40.9 5 21.4 9.5 40.7 10.1 42.8l1 3.8 12.1-0.3 12.2-0.3 16.1-64.5c8.9-35.5 16.5-65.7 16.8-67.3l0.7-2.7h-12.9c-12.5 0-12.9 0.1-13.4 2.2-1.2 4.5-19.7 89.7-19.7 90.5-0.2 3.4-3.1-8.2-12.1-47.5l-10.4-45.2h-10.6-10.7l-3.5 14.7c-1.9 8.2-6.8 28.9-10.8 46-4 17.2-7.6 31.3-7.9 31.3-0.4 0-15.5-68.1-19.8-89.8-0.4-2.1-0.7-2.2-13.9-2.2-12.3 0-13.4 0.1-12.9 1.7z"/><path class="a" d="m190.6 941.2c-10.9 36.1-37.6 125.6-37.6 126.1 0 0.4 6 0.7 13.4 0.7h13.4l3-11.3c1.7-6.1 3.6-13.1 4.2-15.5l1.1-4.2h18.9 18.9l1.5 5.3c0.8 2.8 2.7 9.8 4.2 15.4l2.7 10.3h13.4c7.3 0 13.3-0.3 13.3-0.6 0-1-39.1-132.7-39.6-133.6-0.3-0.4-6.8-0.8-14.4-0.8h-13.9zm23.8 49.6c3.6 13.9 6.6 25.5 6.6 25.7 0 0.3-6.3 0.5-14.1 0.5-10.9 0-14-0.3-13.7-1.3 0.3-0.6 3.4-12.5 6.9-26.4 3.5-13.9 6.7-24.9 7.1-24.5 0.3 0.4 3.6 12.1 7.2 26z"/><path class="a" d="m275 1000.4v67.6h13 13v-16.3-16.2l9.2-6c5-3.3 9.5-6 9.9-6 0.4 0 5.7 10 11.8 22.3l11.1 22.2h13.5c7.5 0 13.4-0.3 13.2-0.8-0.2-0.4-6.8-14.1-14.7-30.5l-14.4-29.8 4.1-4.2c15.3-15.7 20-33.6 12.8-48.3-3.1-6.3-7.5-10.3-15.5-14.4-10.3-5.2-16.2-6.1-42.7-6.7l-24.3-0.5zm51.6-41.7c13.6 7 10.3 23-7.4 36.6-5.4 4.2-16.1 10.7-17.5 10.7-0.4 0-0.7-11.3-0.7-25.1v-25.2l10.8 0.5c8.3 0.3 11.8 0.9 14.8 2.5z"/><path class="a" d="m384 1000.5v67.5h13 13v-41.1c0-22.5 0.4-40.8 0.8-40.5 0.4 0.2 12 18.7 25.7 41l25 40.6h10.8 10.7v-67.5-67.5h-13-13l-0.2 41.2-0.3 41.3-25.4-41.3-25.4-41.2h-10.9-10.8z"/><path class="a" d="m510 1000.5v67.5h40 40v-12-12h-27-27v-17-17h20.5 20.5v-11-11h-20.5-20.5v-15.5-15.5h26 26v-12-12h-39-39z"/><path class="a" d="m610 1000.4v67.6h12.5 12.5l0.2-16.2 0.3-16.3 8-5.3c4.4-2.9 8.8-5.7 9.8-6.3 1.5-0.9 3 1.7 12.9 21.6l11.1 22.5h13.4c7.3 0 13.3-0.2 13.3-0.4 0-0.2-6.5-14-14.5-30.6l-14.6-30.1 6.1-6.6c3.5-3.8 7.7-9.9 9.8-14.2 3.4-7 3.7-8.1 3.7-16.5 0-7.9-0.4-9.8-2.8-14.8-3.2-6.5-8.8-11.7-16.3-15.3-9.9-4.7-16.3-5.6-41.6-6.2l-23.8-0.5zm47.6-42.9c7.1 2.1 10.6 6.1 11.2 12.8 0.5 6.4-1.7 11.5-8.1 18.4-5.7 6.2-21.9 17.3-25.2 17.3-0.3 0-0.5-11.3-0.5-25v-25h8.8c4.9 0 11.1 0.7 13.8 1.5z"/><path class="a" d="m757 1000.5v67.5h15.8c35.3 0 57.8-7.6 68.1-23 4.8-7.3 6.5-13.9 5.9-23.8-0.6-10.3-4.2-17.6-12.8-26.2l-6.5-6.6 3.7-4.9c10.3-13.5 9.6-31.5-1.5-41-8.8-7.6-18.9-9.5-49.9-9.5h-22.8zm51-42.9c2.2 0.9 4.5 2.5 5 3.5 2.8 5.2-0.6 12.2-8.7 18.2-4.9 3.5-18.4 10.7-20.3 10.7-0.6 0-1-6.1-1-17v-17h10.5c7.3 0 11.7 0.5 14.5 1.6zm7.4 49.7c5.6 5.7 8.1 12 7.1 18.4-1.5 10-12.8 16.5-31.1 18l-8.4 0.6v-14.1-14.1l5.3-2.3c2.8-1.2 8.8-4.1 13.2-6.5 4.4-2.3 8.3-4.2 8.8-4.3 0.4 0 2.7 1.9 5.1 4.3z"/><path class="a" d="m866.8 933.6c-0.5 0.4-0.8 30.8-0.8 67.6v66.8h13 13l0.2-16.2 0.3-16.3 9-6.2c5-3.4 9.4-6.2 9.8-6.3 0.4 0 5.7 10.1 11.7 22.5l10.9 22.5h13.7c10.5 0 13.5-0.3 13.1-1.2-0.3-0.7-6.9-14.5-14.7-30.5l-14.2-29.3 6.1-6.7c3.6-3.8 7.7-9.8 9.9-14.2 3.4-7 3.7-8.1 3.7-16.5 0-7.9-0.4-9.8-2.8-14.8-4.6-9.4-13.9-15.9-27.9-19.4-6.8-1.7-52.6-3.3-54-1.8zm50.7 25c12.2 5.9 11 20.2-2.6 32.9-5.3 4.9-20 14.5-22.1 14.5-0.5 0-0.8-11.3-0.8-25.1v-25.2l10.8 0.5c7.9 0.3 11.8 0.9 14.7 2.4z"/><path class="a" d="m1179.4 1042.4c-7.5 3.3-10.4 14.5-5.6 21.3 8.5 12 27.3 5 25.9-9.6-1.1-9.9-11-15.7-20.3-11.7z"/></svg>