<svg version="1.2" xmlns="http://www.w3.org/2000/svg" viewBox="0 0 1200 1214" width="69" height="70"><style>.a{fill:#2425b8}.b{fill:#fec100}.c{fill:#171699}.d{fill:#18179b}.e{fill:#fff}</style><path class="a" d="m632.8 3.3c1.6 0.3 1.6 0.3 3.3 0.5 37.2 5.9 74.4 13.1 110.9 22.7q3.2 0.8 6.4 1.6c22.8 5.9 45.3 12.6 67.6 19.9q1.1 0.4 2.2 0.7c31.6 10.4 62.5 22.5 92.8 36.3 1.6 0.7 1.6 0.7 3.2 1.5 14.7 6.7 29.2 13.6 43.8 20.5 0.3 17.2 0.7 34.3 1 52 7.6 4 15.2 7.9 23 12 3.9 2.2 7.9 4.4 11.8 6.6 9.9 5.8 20 11 30.2 16.4 0 16.5 0 33 0 50q3 1 6 2 2.2 1.1 4.4 2.3 1.3 0.7 2.5 1.4 1.4 0.7 2.7 1.5 3 1.6 5.9 3.2 1.6 0.9 3.2 1.8c5.3 2.9 10.6 5.7 16 8.6 9.8 5.2 19.6 10.6 29.3 16.2-0.6 12.9-2.6 25.7-4.5 38.5q-0.3 1.8-0.5 3.7c-7.1 48.6-17.9 96.1-33 142.8q-0.3 1-0.7 2.1c-16.6 51.3-38.8 101.4-66.3 147.9q-0.8 1.3-1.6 2.7c-17.2 29.3-36.5 57.5-57.4 84.3q-1.3 1.7-2.7 3.5c-5.8 7.4-11.7 14.7-17.9 21.8q-2.2 2.6-4.3 5.2c-6.3 7.3-12.7 14.5-19.3 21.6q-2.1 2.2-4.1 4.4c-7.2 8-14.7 15.7-22.3 23.3q-3.1 3.1-6.2 6.2-2 2-4 4-0.9 0.9-1.8 1.8c-3.8 3.7-7.6 7.2-11.6 10.6-2.6 2.3-5.1 4.6-7.6 7-4.6 4.2-9.4 8.3-14.3 12.2-3.3 2.7-6.5 5.5-9.7 8.3-6.9 5.9-14 11.6-21.2 17.1q-1.2 0.9-2.3 1.8c-49.1 38-102 69.9-157.1 98.2-5 2.6-10 5.2-14.9 7.9q-1.1 0.7-2.3 1.3-2.1 1.2-4.2 2.4c-4.3 2.4-6.5 2.6-11.2 1.4-2.5-1.1-4.8-2.2-7.2-3.5q-1-0.5-2.1-1-3.3-1.8-6.7-3.6-2.4-1.2-4.7-2.4-6-3.1-12-6.3-3.2-1.7-6.5-3.4c-16.9-8.8-33.5-18-49.8-27.8q-1.4-0.8-2.8-1.6c-29.8-17.7-58.4-37.4-85.8-58.6q-3.1-2.4-6.2-4.7c-14.1-10.8-27.8-22.1-40.9-34.1q-3.1-2.7-6.2-5.4c-8.5-7.4-16.7-15.1-24.6-23.1-2.1-2.1-4.2-4-6.5-5.9-3.9-3.4-7.3-7.2-10.8-11-3-3.4-6.2-6.6-9.4-9.9-3.5-3.4-6.8-6.9-10-10.6-2.2-2.5-4.4-5-6.7-7.4-4.4-4.9-8.6-9.9-12.8-15.1q-2.2-2.7-4.4-5.4c-8.4-10-16.4-20.3-24.1-30.8q-1.7-2.3-3.4-4.6c-15.2-20.4-29.5-41.8-42.4-63.8q-0.7-1.2-1.4-2.4c-42-71.9-72.6-149.1-105.5-314.9q-0.1-1.1-0.3-2.3-0.5-3.4-0.9-6.8-0.3-1.9-0.5-3.9c-0.4-3.9-0.5-7.7-0.4-11.7 13.6-7.7 27.5-15.1 41.3-22.3q2.1-1.1 4.2-2.3c3.8-2.1 7.5-3.8 11.5-5.3 4.9-2 9.6-3.9 13-8.1 3-7.9 2-16.8 1.6-25.1q0-3.5-0.1-7-0.1-8.4-0.5-16.9 20.2-11.1 40.7-21.7 1.7-0.8 3.5-1.8 1.5-0.7 3-1.5c5.6-3 11.2-6 16.8-9 0.3-17.2 0.7-34.3 1-52 80.2-39.2 162.6-70.6 335.8-105.3q3.8-0.6 7.6-1.3c17.7-3.2 34.8-0.9 52.4 1.9z"/><path class="b" d="m632.8 3.3c1.6 0.3 1.6 0.3 3.3 0.5 37.2 5.9 74.4 13.1 110.9 22.7q3.2 0.8 6.4 1.6c22.8 5.9 45.3 12.6 67.6 19.9q1.1 0.4 2.2 0.7c31.6 10.4 62.5 22.5 92.8 36.3 1.6 0.7 1.6 0.7 3.2 1.5 14.7 6.7 29.2 13.6 43.8 20.5 0.3 17.2 0.7 34.3 1 52 7.6 4 15.2 7.9 23 12 3.9 2.2 7.9 4.4 11.8 6.6 9.9 5.8 20 11 30.2 16.4 0 16.5 0 33 0 50q3 1 6 2 2.2 1.1 4.4 2.3 1.3 0.7 2.5 1.4 1.4 0.7 2.7 1.5 3 1.6 5.9 3.2 1.6 0.9 3.2 1.8c5.3 2.9 10.6 5.7 16 8.6 9.8 5.2 19.6 10.6 29.3 16.2-0.6 12.9-2.6 25.7-4.5 38.5q-0.3 1.8-0.5 3.7c-7.1 48.6-17.9 96.1-33 142.8q-0.3 1-0.7 2.1c-16.6 51.3-38.8 101.4-66.3 147.9q-0.8 1.3-1.6 2.7c-17.2 29.3-36.5 57.5-57.4 84.3q-1.3 1.7-2.7 3.5c-5.8 7.4-11.7 14.7-17.9 21.8q-2.2 2.6-4.3 5.2c-6.3 7.3-12.7 14.5-19.3 21.6q-2.1 2.2-4.1 4.4c-7.2 8-14.7 15.7-22.3 23.3q-3.1 3.1-6.2 6.2-2 2-4 4-0.9 0.9-1.8 1.8c-3.8 3.7-7.6 7.2-11.6 10.6-2.6 2.3-5.1 4.6-7.6 7-4.6 4.2-9.4 8.3-14.3 12.2-3.3 2.7-6.5 5.5-9.7 8.3-6.9 5.9-14 11.6-21.2 17.1q-1.2 0.9-2.3 1.8c-49.1 38-102 69.9-157.1 98.2-5 2.6-10 5.2-14.9 7.9q-1.1 0.7-2.3 1.3-2.1 1.2-4.2 2.4c-4.3 2.4-6.5 2.6-11.2 1.4-2.5-1.1-4.8-2.2-7.2-3.5q-1-0.5-2.1-1-3.3-1.8-6.7-3.6-2.4-1.2-4.7-2.4-6-3.1-12-6.3-3.2-1.7-6.5-3.4c-16.9-8.8-33.5-18-49.8-27.8q-1.4-0.8-2.8-1.6c-29.8-17.7-58.4-37.4-85.8-58.6q-3.1-2.4-6.2-4.7c-14.1-10.8-27.8-22.1-40.9-34.1q-3.1-2.7-6.2-5.4c-8.5-7.4-16.7-15.1-24.6-23.1-2.1-2.1-4.2-4-6.5-5.9-3.9-3.4-7.3-7.2-10.8-11-3-3.4-6.2-6.6-9.4-9.9-3.5-3.4-6.8-6.9-10-10.6-2.2-2.5-4.4-5-6.7-7.4-4.4-4.9-8.6-9.9-12.8-15.1q-2.2-2.7-4.4-5.4c-8.4-10-16.4-20.3-24.1-30.8q-1.7-2.3-3.4-4.6c-15.2-20.4-29.5-41.8-42.4-63.8q-0.7-1.2-1.4-2.4c-42-71.9-72.6-149.1-105.5-314.9q-0.1-1.1-0.3-2.3-0.5-3.4-0.9-6.8-0.3-1.9-0.5-3.9c-0.4-3.9-0.5-7.7-0.4-11.7 13.6-7.7 27.5-15.1 41.3-22.3q2.1-1.1 4.2-2.3c3.8-2.1 7.5-3.8 11.5-5.3 4.9-2 9.6-3.9 13-8.1 3-7.9 2-16.8 1.6-25.1q0-3.5-0.1-7-0.1-8.4-0.5-16.9 20.2-11.1 40.7-21.7 1.7-0.8 3.5-1.8 1.5-0.7 3-1.5c5.6-3 11.2-6 16.8-9 0.3-17.2 0.7-34.3 1-52 80.2-39.2 162.6-70.6 335.8-105.3q3.8-0.6 7.6-1.3c17.7-3.2 34.8-0.9 52.4 1.9zm-57.9 58.4q-2.4 0.4-4.8 0.8-4.8 0.9-9.6 1.7-5.9 1-11.8 2c-87.5 14.2-172.5 41.1-252.7 78.8 0 16.5 0 33 0 50-3 1-3 1-6 2q-2.7 1.3-5.4 2.8-1.6 0.8-3.2 1.7-1.6 0.9-3.3 1.8-2.6 1.4-5.2 2.8-2.7 1.5-5.3 3-5.2 2.8-10.3 5.5c-6.1 3.3-6.1 3.3-12.1 6.6q-1.2 0.6-2.4 1.3-5.9 3.2-11.8 6.5c0 16.5 0 33 0 50-3 1-3 1-6 2q-2.3 1.1-4.6 2.4-1.2 0.7-2.5 1.4-1.4 0.7-2.8 1.5-2.9 1.6-5.9 3.3-1.5 0.8-3.1 1.7c-5.2 2.8-10.4 5.6-15.6 8.4-8.6 4.7-17.1 9.4-25.5 14.3 8.3 75.5 31.5 149.1 63 218q0.6 1.3 1.2 2.7c5.6 12.2 11.8 24 18.4 35.7q1.9 3.6 3.9 7.2c19.1 35.2 42.5 68.8 68.1 99.7q3 3.6 6 7.3c8.6 10.6 17.5 20.8 26.8 30.7q2.4 2.6 4.8 5.1c6.9 7.6 14 14.9 21.2 22.1q1.2 1.2 2.5 2.5c4.3 4.3 8.6 8.4 13.2 12.4 3 2.6 5.8 5.3 8.7 8 5 4.6 10.1 9 15.4 13.3q4 3.3 7.9 6.7c6.5 5.6 13.1 11 19.9 16.1q3.4 2.6 6.8 5.2c10.6 8.2 21.4 16.1 32.5 23.5q4.5 3 9.1 6.1c26.8 18.1 54.5 34.4 83 49.7q5.2 2.8 10.3 5.6 1 0.6 2.1 1.2 2.6 1.5 5.3 3c3.4 1.4 4.4 1.2 7.9 0.2q2.7-1.2 5.4-2.5 1.5-0.8 3.1-1.5 1.7-0.9 3.4-1.8c1.7-0.8 1.7-0.8 3.5-1.7 11.4-5.8 22.5-12.1 33.6-18.5q1.4-0.8 2.8-1.6c21.7-12.6 42.6-26.1 63.2-40.4q1-0.7 2-1.4c16.3-11.3 32-23.6 47.3-36.2q2.4-2 4.8-3.9c5.3-4.3 10.5-8.8 15.6-13.4q3.1-2.8 6.3-5.6c7.2-6.3 14.2-12.6 20.9-19.4 1.9-1.9 3.9-3.7 6-5.5 7.3-6.3 14.1-13.3 20.4-20.7 1.8-2.1 3.7-4 5.7-5.9 3.9-3.8 7.5-7.9 11-12q1.4-1.6 2.7-3.2 3.9-4.5 7.8-9 2.1-2.5 4.3-5c6.1-7.1 11.8-14.4 17.3-21.9 2.6-3.5 5.2-6.9 7.9-10.3 9.6-12.5 18.4-25.4 27-38.6q0.7-1 1.4-2.1c14.6-22.5 27.5-45.9 39.6-69.9 0.8-1.6 0.8-1.6 1.6-3.2 32.4-64.1 54.1-135.3 65.3-206.2q0.1-1 0.3-2.1c1.5-9.2 1.5-9.2 1.8-18.5-9.8-5.7-19.7-11.1-29.7-16.4-9.9-5.2-19.7-10.4-29.3-15.9-3.3-2-3.3-2-7-2.7 0-16.5 0-33 0-50-4.8-2.6-9.7-5.1-14.6-7.8-11.7-6.1-23.3-12.4-34.8-18.7q-1.2-0.6-2.3-1.2-2.4-1.4-4.8-2.7-1.2-0.7-2.5-1.4-1.1-0.7-2.2-1.3c-1.8-1-1.8-1-3.8-0.9 0-16.5 0-33 0-50-54.4-25.7-110.6-46.2-169-61q-1.1-0.3-2.3-0.6c-36.6-9.3-73.2-16.5-110.4-22.1q-3.1-0.4-6.2-0.9c-14.2-2.3-27.1-1.2-41.2 1.3z"/><path class="b" d="m630 166c37.3 0 73.5 6.8 109 18q1.7 0.5 3.4 1.1c41.2 12.9 82.9 30.3 116.6 57.9q0.9 0.7 1.7 1.4c19.9 16 40.1 37 43.3 63.6 1.9 26.4-6.4 48.6-23.3 68.8-1.6 2-2.7 3.9-3.7 6.2 1.5 0.8 1.5 0.8 3 1.6 18.3 9.7 32 21.2 39 41.4 10.6 35.7-11.5 79.7-27.7 110.1-10.3 18.7-21.7 36.7-34.3 53.9q-1.7 2.4-3.4 4.7c-7.1 9.8-14.5 19.3-22.2 28.6q-3 3.6-6 7.3c-8.5 10.5-17.4 20.6-26.6 30.5q-2.1 2.2-4.1 4.4c-7.1 7.9-14.4 15.4-21.9 22.8q-3 3-6 6c-11.2 11.3-11.2 11.3-17.2 16.3-2.5 2.2-5 4.5-7.4 6.8-4.7 4.3-9.5 8.4-14.4 12.4-2.9 2.3-5.6 4.6-8.4 7-24.4 20.3-50.6 37.9-78 53.8q-2.3 1.3-4.5 2.7c-4.7 2.7-4.7 2.7-6.9 2.7 0-207.9 0-415.8 0-630z"/><path class="b" d="m569 165c0 207.6 0 415.1 0 629-8.8-7.6-16.2-15.9-23.5-24.9q-2.7-3.4-5.5-6.7c-18.2-22-35.1-45.5-49.6-70.1q-2.2-3.7-4.4-7.3c-10.4-17.3-20.1-34.9-29-53-7.5 3.5-14.6 7.7-21.7 12q-2.8 1.7-5.5 3.4c-5.5 3.3-11 6.7-16.5 10.2q-1.2 0.8-2.5 1.6-2.2 1.5-4.5 2.9c-4.7 3-4.7 3-7.4 2.5-2.7-2.3-5.2-4.9-7.6-7.6q-0.8-0.9-1.7-1.8c-4.4-4.9-8.5-10-12.6-15.2-1.2-1.5-1.2-1.5-2.4-3.1-12.3-15.4-23.9-31.3-34.6-47.9q-0.7-1.1-1.5-2.3c-13.1-20.1-24.7-41.2-35.5-62.7q-0.8-1.5-1.6-3.1c-14.6-29.1-26.2-59.3-37-90q-1.4-3.8-2.8-7.6c-2.7-7.5-5.1-15.1-7.2-22.8q-0.9-3.3-1.8-6.6c-0.4-1.5-0.4-1.5-0.8-3.1q-1.4-5-2.9-10-2.6-9.1-5.1-18.2-0.4-1.4-0.8-2.8-1.1-3.9-2-7.8-0.3-1.1-0.6-2.3c-0.4-2.1-0.4-2.1-0.4-5.7 1.8-2.7 1.8-2.7 4.5-5 3.1-2.8 6-5.5 8.7-8.7 3.7-4.2 7.5-8.2 11.5-12.1q1-1 2.1-2.1 3.3-3.3 6.6-6.6 2.3-2.3 4.6-4.5 5.5-5.5 11-11 1.5 0.5 3 1c0.9 2.4 0.9 2.4 1.5 5.6q0.4 1.7 0.8 3.6 0.2 0.9 0.5 1.9 1.1 5.2 2.3 10.3c0.2 1.1 0.2 1.1 0.4 2.2 4.9 21.7 11 43.2 17.9 64.4q1 3.1 2 6.3c17.1 52.8 37.7 104 66.6 151.7q0.8 1.4 1.7 2.8c5.8 9.7 11.7 19.1 18.4 28.1 2.9 3.9 2.9 3.9 2.9 6.1q3.8-1.9 7.7-3.8 1.1-0.5 2.2-1.1c3.8-1.9 7.5-3.8 11.1-6.1-1.5-8.1-4.2-15.7-6.9-23.4q-2-5.9-4.1-11.8-0.4-1.1-0.8-2.3c-5.6-16.3-10.4-32.5-14.6-49.2q-1.6-6.4-3.5-12.8c-10.3-35.8-16.6-72.8-22.2-109.6-0.2-1.2-0.2-1.2-0.4-2.4q-0.3-2.1-0.7-4.3c-0.4-2.9-0.9-5.5-1.8-8.2q-0.5-3.2-0.8-6.4-0.3-1.9-0.5-3.9-0.3-2.2-0.5-4.3-0.4-3.4-0.8-6.8-0.3-2.3-0.6-4.6-0.9-7.8-1.9-15.7c-5.5-43.8-5.5-43.8-4.9-63.3 14.5-8.4 29.1-16.4 44-24 1.3-0.7 1.3-0.7 2.7-1.4q3.8-1.9 7.6-3.9 1.1-0.5 2.2-1.1c5.2-2.6 5.2-2.6 8.5-2.6q0.1 1.9 0.3 3.9c2 25.2 4.1 50.2 7 75.3q0.7 6.1 1.3 12.2c4.7 47.2 13.5 94.5 24.4 140.6 0.4 1.5 0.4 1.5 0.7 3.1q1.6 6.6 3.2 13.3 1.1 4.4 2 8.8c2.6 11.2 5.7 22.2 9 33.3q1.2 3.9 2.4 7.9c3.5 11.9 7.3 23.6 11.3 35.4q1.5 4.3 3 8.7 1 2.8 1.9 5.6 0.5 1.3 0.9 2.6c1.8 5.1 3.7 10.2 5.8 15.2 0.8 2.1 0.8 2.1 0.8 5.1q2 0 4 0c-0.1-1.9-0.1-1.9-0.2-3.8-0.9-17.6-1-35.3-1.1-53q0-6.6 0-13.2-0.1-11.3-0.1-22.6-0.2-27.9-0.3-55.8-0.1-4.4-0.1-8.8-0.2-44.3-0.7-88.7c-0.6-51-0.6-102-0.5-153.1 15.8-4.3 15.8-4.3 22.6-5.6q1.9-0.4 3.9-0.8 1.9-0.3 3.9-0.7 1-0.2 2-0.4c23.4-4.5 23.4-4.5 33.6-4.5z"/><path class="c" d="m829.8 422.2c11 4.7 18.1 11.6 23.1 22.6 5.9 18.2-3.6 39.9-11.7 56.2q-2.1 4-4.2 8c-0.5 0.9-0.5 0.9-1 1.9-12.9 24.5-30.2 47-48 68.1q-1.3 1.6-2.6 3.1c-5.5 6.6-11.1 12.9-16.9 19.2q-3.2 3.4-6.2 7c-2.8 3.1-5.6 6-8.6 8.9-1.7 1.8-3.2 3.5-4.8 5.4-7.3 8.4-15.4 16.5-23.9 23.7-2.5 2.1-4.8 4.3-7.1 6.5-15.3 13.9-15.3 13.9-21.9 17.2 0-59.7 0-119.5 0-181 25.8-14.4 25.8-14.4 34.9-19.5q14.8-8.3 29.4-16.6 7.4-4.2 14.8-8.3 3.1-1.7 6.3-3.5 1.5-0.8 3.1-1.7 8.3-4.6 16.5-9.7 0.8-0.5 1.7-1 4.1-2.6 8.2-5.2 1.5-0.9 3-1.8 1.3-0.8 2.6-1.7c4.7-1.9 8.9 0.4 13.3 2.2z"/><path class="d" d="m696 241c43.1 0 95.2 20.7 126.8 50.3 6.9 7.1 11.2 15.3 11.6 25.2-0.1 11-5.4 19.4-12.4 27.5q-0.7 1-1.5 1.9c-15.7 19.6-41.7 30.5-63.4 41.9q-10.2 5.4-20.5 10.9-1.7 0.9-3.4 1.8-8.8 4.8-17.7 9.5-1.8 1-3.6 2-3.5 1.9-7 3.8-1.5 0.8-3.1 1.7c-1.4 0.7-1.4 0.7-2.7 1.5-2.1 1-2.1 1-3.1 1 0-59.1 0-118.1 0-179z"/><path class="e" d="m0 1076c8.9 0 17.8 0 27 0 1.8 4.4 2.9 8.6 3.9 13.3q0.2 1.2 0.5 2.5 0.9 4 1.7 8.1 0.6 2.8 1.2 5.6 1.6 7.4 3.2 14.8 1.6 7.5 3.2 15.1 3.2 14.8 6.3 29.6 3.4-14.5 6.9-29.1 1.6-6.7 3.2-13.4 1.5-6.6 3.1-13.1 0.6-2.5 1.1-5 3.4-14.2 6.7-28.4c7.6 0 15.2 0 23 0 2.9 10.8 5.6 21.6 8.1 32.4q0.6 2.5 1.1 4.9 1.5 6.3 3 12.6 1.5 6.4 3 12.9 2.9 12.6 5.8 25.2c3-10.7 5.5-21.5 7.9-32.4q0.5-2.5 1-4.9 1.4-6.3 2.8-12.6 1.4-6.4 2.8-12.9 2.8-12.6 5.5-25.2c9.2 0 18.5 0 28 0-8.2 33.4-16.4 66.8-24.9 100.1q-0.8 3.4-1.7 6.7-1.3 5.3-2.6 10.6-0.8 2.8-1.5 5.7-0.4 1.7-0.9 3.4-0.4 1.5-0.7 3-0.8 2.8-1.7 5.5c-8.6 0-17.2 0-26 0q-10.3-41.9-20-84c-2.8 9.3-5.2 18.7-7.4 28.2q-0.7 3.4-1.5 6.8-1.7 7.2-3.3 14.3-1.9 8.4-3.8 16.7-0.8 3.4-1.5 6.7-0.5 2.1-1 4.1-0.4 1.7-0.8 3.6c-0.7 2.6-0.7 2.6-1.7 3.6q-2.9 0.1-5.8 0.1-1.7 0-3.5 0-1.9 0-3.8 0c-1.8 0-1.8 0-3.7-0.1q-4.6 0-9.2 0-8.7-34.3-17.4-68.6-0.9-3.5-1.8-7.1-3-11.8-5.9-23.6-1.3-4.9-2.5-9.8-1.4-5.4-2.8-10.9-0.4-1.6-0.8-3.2c-0.3-1.5-0.3-1.5-0.7-3q-0.3-1.2-0.7-2.5c-0.4-2.3-0.4-2.3-0.4-6.3z"/><path class="e" d="m384 1076c23 0 23 0 28.2 4.8 1.7 3.1 1.7 3.1 3.2 6.6q1 1.8 1.9 3.5 2 3.7 3.8 7.4c2.9 5.8 6.4 11.2 9.9 16.7q2 3.2 3.9 6.4 1 1.6 2 3.2 2.8 4.5 5.5 8.9 2.2 3.7 4.5 7.3 1 1.8 2.1 3.5 1.5 2.4 3 4.8 0.8 1.4 1.7 2.8c1.1 2 1.1 2 2.3 3.1 0.3-26.1 0.7-52.1 1-79 8.9 0 17.8 0 27 0 0 44.5 0 89.1 0 135-7.9 0-15.8 0-24 0-7.5-9.7-7.5-9.7-9.4-14.3-2.5-5.6-5.5-10.6-8.8-15.8q-1.7-2.6-3.3-5.2-0.8-1.4-1.7-2.8-3-4.8-5.9-9.6-0.6-0.9-1.1-1.8-2.6-4.2-5.2-8.4-0.9-1.5-1.9-3.1-0.8-1.3-1.6-2.7c-3-4.8-6.1-9.5-9.1-14.3-0.3 25.7-0.7 51.5-1 78-8.9 0-17.8 0-27 0 0-44.5 0-89.1 0-135z"/><path class="e" d="m757 1076c64.1 0 64.1 0 75 10 7 8.6 7.8 16.2 7 27-1.7 7.2-5.7 13.1-10 19 0.7 0.6 0.7 0.6 1.5 1.2 8.8 7.2 15.6 16.4 17.5 27.8 0.9 12-1.5 22.4-9 32-11.6 11.6-27.2 15.7-43 18-12.9 0-25.7 0-39 0 0-44.5 0-89.1 0-135zm27 23c0 10.9 0 21.8 0 33 10.2-2 21.7-8.8 27.8-17.5 1.7-3.4 1.7-5.8 1.2-9.5-2.4-3.5-4.9-4.5-8.9-5.6-3.9-0.7-7.7-0.6-11.5-0.5-2.9 0-5.7 0.1-8.6 0.1zm19.7 50.1q-1.2 0.7-2.5 1.4-1.3 0.7-2.6 1.4-2.5 1.3-5.1 2.7-1.1 0.6-2.2 1.3c-2.4 1.1-4.9 2.1-7.3 3.1 0 9.2 0 18.5 0 28 19.9-1.3 19.9-1.3 36-12 2.8-4.5 2.5-8.9 2-14-2.1-5.8-5.9-10.6-11-14-3.3 0-4.4 0.6-7.3 2.1z"/><path class="e" d="m609 1076c63.3 0 63.3 0 77.6 12.2 6.7 7.1 9.8 15.5 9.6 25.4-1.2 13.4-7.2 22.7-16.3 32.2-2 2.3-2.6 3.3-2.9 6.2 0.8 2.4 0.8 2.4 2.1 4.8q0.8 1.5 1.5 2.9 0.8 1.5 1.7 3.1 1.6 3.3 3.3 6.5 0.8 1.7 1.7 3.4c2.6 5.1 5.1 10.4 7.6 15.6q0.7 1.4 1.4 2.8c8.7 18.3 8.7 18.3 8.7 19.9-9.6 0-19.1 0-29 0q-4.5-8.9-9-17.8-1.5-3.1-3-6.1-2.2-4.4-4.4-8.7-0.7-1.4-1.4-2.8-0.6-1.2-1.3-2.5-0.5-1.1-1.1-2.3c-0.8-1.8-0.8-1.8-0.8-3.8-7 2.5-13.8 5.7-18 12-2.7 10.4-1.7 21.4-1 32-8.9 0-17.8 0-27 0 0-44.5 0-89.1 0-135zm27 24c0 15.8 0 31.7 0 48 12.6-5 26.1-14.4 32-27 1.3-4.5 1.4-7.8-0.1-12.3-3.4-4.8-6.5-6.5-11.9-8.7-6.6 0-13.2 0-20 0z"/><path class="e" d="m866 1076c63.9 0 63.9 0 77.3 12.1 7.6 7.9 9.9 16 9.7 26.9-1.6 12.5-7.5 22-16.1 30.8-2 2.3-2.6 3.3-2.9 6.2 0.7 2.4 0.7 2.4 2 4.8q0.7 1.4 1.4 2.9 0.8 1.5 1.6 3.1 0.8 1.5 1.6 3.2 2.5 5.1 5.1 10.1 2.5 5.1 5 10.1 1.6 3.2 3.2 6.3 0.7 1.4 1.4 2.9 0.7 1.3 1.3 2.6c2 4.2 3.7 8.6 5.4 13-9.6 0-19.1 0-29 0q-4.5-8.9-9-17.8-1.5-3.1-3-6.1-2.2-4.4-4.4-8.7-0.7-1.4-1.4-2.8-0.6-1.2-1.3-2.5-0.5-1.1-1.1-2.3c-0.8-1.8-0.8-1.8-0.8-3.8-7 2.5-13.8 5.7-18 12-2.7 10.4-1.7 21.4-1 32-8.9 0-17.8 0-27 0 0-44.5 0-89.1 0-135zm27 24c0 15.8 0 31.7 0 48 13.3-5.3 26-14.7 32-28 1.3-4.4 1.2-6.3-0.1-10.7-3.4-5.9-6.4-7.1-12.9-9.3-6.3 0-12.5 0-19 0z"/><path class="e" d="m275 1076c60.4 0 60.4 0 73 9 0.9 0.6 0.9 0.6 1.9 1.2 6.1 4.6 10.2 11.3 11.4 18.9 1.4 14.5-2.6 25-11.4 36.6-1.5 1.9-3.1 3.5-5 5.2q-0.9 1-1.9 2.1c0.3 4.9 2.8 9.1 5 13.4 0.6 1.2 0.6 1.2 1.2 2.5q1.9 3.9 3.9 7.8 2.5 5.1 5 10.2c0.6 1.2 0.6 1.2 1.2 2.5 4.2 8.4 7.9 17 11.7 25.6-9.6 0-19.1 0-29 0-3.2-6.4-3.2-6.4-4.3-8.6q-3.5-7.1-7.1-14.2-1.8-3.5-3.6-7.1-0.9-1.7-1.8-3.5-0.8-1.6-1.6-3.3-0.8-1.4-1.5-2.9c-1.1-2.4-1.1-2.4-1.1-4.4-7 2.5-13.8 5.7-18 12-2.7 10.4-1.7 21.4-1 32-8.9 0-17.8 0-27 0 0-44.5 0-89.1 0-135zm27 24c0 15.8 0 31.7 0 48 12.1-4.8 25.4-13.7 31.3-25.7 1.6-5.2 1.6-10.1-0.4-15.2-3.5-3.9-6.9-5.8-11.9-7.1-6.3 0-12.5 0-19 0z"/><path class="e" d="m1044.3 1080.3c15.3 11.5 21.5 29.1 24.3 47.5 2.7 23.7 0.1 50.4-14.6 69.9-7.6 8.9-17.2 15.5-29.1 16.5-14.2 0.8-25.8-0.8-37.3-9.8-12.7-11.6-17.8-26.9-20.6-43.4q-0.2-1.1-0.4-2.3c-3.3-23.5 0.7-50.7 15.1-69.9 15.5-18.4 42.6-21.6 62.6-8.5zm-42.5 25.3c-10.8 15.9-10.6 38.7-7.6 57 2.4 10.3 5.8 19.1 14.5 25.3 5.3 1.8 10.9 2.2 16.4 0.4 7.6-3.9 11.5-10.5 14.1-18.4 5.5-19.7 5.3-44.2-4.6-62.4-3.1-4.8-7-8.1-12.6-9.5-8.4-1-14.8 1-20.2 7.6z"/><path class="e" d="m192 1076c9.9 0 19.8 0 30 0 1.8 4.9 3.5 9.6 5 14.6q0.6 1.8 1.1 3.8 0.6 2 1.2 4 0.7 2.2 1.3 4.3 1.7 5.8 3.4 11.5 1.7 6 3.5 12 0.7 2.4 1.4 4.8 0.4 1.2 0.8 2.5 1 3.6 2.1 7.3 4.3 14.4 8.6 28.9 0.8 2.9 1.7 5.8c2.1 7.1 2.1 7.1 4.3 14.3q1.4 4.9 2.8 9.7 0.5 1.4 0.9 2.9c0.4 1.2 0.4 1.2 0.8 2.5q0.3 1.1 0.6 2.3c0.5 1.8 0.5 1.8 0.5 3.8-9.2 0-18.5 0-28 0-3.4-9-3.4-9-4.4-12.8q-0.3-1.3-0.6-2.5-0.4-1.2-0.7-2.5c-0.3-1.3-0.3-1.3-0.7-2.6-1.6-6.2-1.6-6.2-1.6-9.6-12.5 0-25.1 0-38 0-0.3 2.6-0.7 5.3-1 8q-0.6 2.8-1.4 5.6-0.4 1.3-0.7 2.6-0.5 1.6-1 3.3c-0.9 3.5-1.9 6.9-2.9 10.5-9.6 0-19.1 0-29 0 2-7.8 4-15.5 6.3-23.3q0.5-1.5 1-3.1 1.5-5.2 3.1-10.4 1.1-3.6 2.1-7.2 2.3-7.6 4.6-15.2 2.9-9.7 5.8-19.3 2.8-9.3 5.6-18.6 0.5-1.7 1.1-3.5 1.5-5 3-10c0.4-1.5 0.4-1.5 0.8-2.9q3.3-10.8 6.6-21.5zm14 34q-2.6 9.7-5.1 19.5-0.9 3.3-1.8 6.6-1.2 4.8-2.5 9.5-0.4 1.5-0.8 3-0.3 1.4-0.7 2.8-0.3 1.2-0.6 2.5c-0.6 2.2-0.6 2.2-0.5 5.1 8.6 0 17.2 0 26 0-1.3-6.9-2.6-13.6-4.4-20.4-0.3-1.2-0.3-1.2-0.6-2.5q-1.1-3.9-2.1-7.8-0.7-2.7-1.4-5.3-1.8-6.5-3.5-13-1 0-2 0z"/><path class="e" d="m510 1076c26.1 0 52.1 0 79 0 0 8.3 0 16.5 0 25-17.2 0-34.3 0-52 0 0 9.9 0 19.8 0 30 13.2 0 26.4 0 40 0 0 7.6 0 15.2 0 23-13.2 0-26.4 0-40 0 0 10.6 0 21.1 0 32 17.8 0 35.6 0 54 0 0 8.3 0 16.5 0 25-26.7 0-53.5 0-81 0 0-44.5 0-89.1 0-135z"/><path class="e" d="m1148.4 1080.4q2.4 1.7 4.6 3.6c1 0.8 1 0.8 2 1.6 1.7 1.6 1.7 1.6 4 4.4-0.2 2.7-0.8 3.8-2.6 5.7q-1 0.8-2.1 1.7c-2.7 2.2-5.2 4.5-7.6 7.1q-1.3 1.2-2.7 2.5c-3.7-0.4-5.6-2.3-8.4-4.7-4.7-3.7-9.6-4.8-15.5-4.6-3.2 0.5-5.4 1.4-8.1 3.3-3 4.3-3.7 7.8-3 13 2.9 9 12.5 13.4 20 18 27.1 16.8 27.1 16.8 31.5 33.2 2 11.1 0.8 21.7-5.1 31.4-6.4 8.9-15.1 14.3-25.6 17-16.1 2.4-30.4-0.1-43.8-9.6-4.2-3.3-7.9-6.6-11-11 1.3-2.9 2.7-5 5-7.2q0.9-0.9 1.8-1.8 0.9-0.8 1.8-1.8 0.9-0.8 1.9-1.8 2.2-2.2 4.5-4.4c3 1 3 1 4.6 3.2 4.8 5.6 11.6 9.4 19 10 6.9 0.1 11.3-0.5 16.7-5.2 2.8-3.3 3.1-6.7 3-10.9-0.8-5.6-5.2-9.1-9.2-12.5-3.6-2.7-7.5-4.8-11.4-7-13.6-7.7-25.5-16.2-30.7-31.6-2.9-11.4-1.6-23.1 4.3-33.2 13.6-19.7 43.2-21.1 62.1-8.4z"/><path class="e" d="m1191 1184c4.4 2.1 7.2 4.4 9 9 0.7 5.3 0.7 9.6-1.7 14.5-4.1 4.4-6.8 5.7-12.7 5.9-5-0.1-7.9-1-11.6-4.4-3.6-4-3.5-8.2-3.4-13.3 0.7-4.9 3-7.4 6.5-10.6 4.6-1.7 9-1.7 13.9-1.1z"/></svg>